<svg aria-hidden="true" style="position: absolute; width: 0; height: 0; overflow: hidden;" version="1.1" xmlns="http://www.w3.org/2000/svg" xmlns:xlink="http://www.w3.org/1999/xlink">
<defs>
<symbol id="icon-morty_fuck" viewBox="0 0 32 32">
<path d="M19.781 0.388c-0.35 0.175-0.581 0.406-0.75 0.738-0.2 0.406-0.238 0.744-0.125 1.263l0.094 0.45-0.181 0.194c-0.325 0.331-0.394 0.7-0.231 1.238 0.081 0.275 0.081 0.287-0.075 0.431-0.081 0.081-0.238 0.256-0.331 0.388-0.225 0.306-0.25 0.756-0.056 1.069l0.125 0.206-0.206 0.125c-0.294 0.169-0.55 0.525-0.587 0.806-0.019 0.131 0.012 0.4 0.063 0.594 0.050 0.2 0.069 0.362 0.038 0.362s-0.056 0.031-0.056 0.075-0.1 0.175-0.219 0.3l-0.219 0.225-0.488-0.238c-1.012-0.5-1.994-0.706-3.1-0.656-0.381 0.019-0.819 0.063-0.975 0.094-0.325 0.075-1.544 0.581-1.856 0.769-0.256 0.162-0.344 0.113-0.256-0.137 0.075-0.219 0.019-0.65-0.106-0.85-0.050-0.069-0.244-0.206-0.438-0.294-0.188-0.094-0.344-0.188-0.344-0.219s0.044-0.175 0.094-0.319c0.225-0.644 0.025-1.469-0.387-1.594-0.225-0.063-0.244-0.112-0.113-0.344 0.219-0.388 0.037-0.925-0.387-1.125-0.144-0.069-0.281-0.125-0.294-0.125-0.019 0-0.1-0.025-0.188-0.063l-0.162-0.056 0.15-0.219c0.081-0.125 0.181-0.4 0.225-0.619 0.106-0.594-0.031-1.113-0.381-1.431-0.338-0.306-0.775-0.45-1.275-0.413-0.487 0.044-0.7 0.163-0.975 0.563-0.2 0.294-0.213 0.356-0.231 0.9-0.025 0.569-0.019 0.594 0.194 0.981 0.231 0.406 0.412 0.544 0.856 0.638 0.144 0.025 0.294 0.131 0.444 0.3 0.206 0.237 0.25 0.256 0.606 0.281 0.213 0.013 0.406 0.056 0.425 0.088s-0.006 0.125-0.063 0.206c-0.138 0.213-0.125 0.706 0.025 0.95 0.081 0.144 0.2 0.225 0.387 0.275 0.406 0.119 0.425 0.144 0.281 0.438-0.137 0.275-0.206 0.769-0.15 1.006 0.050 0.181 0.194 0.331 0.6 0.613 0.169 0.119 0.313 0.25 0.319 0.294 0 0.044-0.069 0.206-0.156 0.369-0.094 0.169-0.156 0.4-0.156 0.544 0 0.213-0.063 0.325-0.45 0.819-0.25 0.313-0.581 0.725-0.744 0.912-0.169 0.2-0.406 0.613-0.581 1-0.281 0.625-0.306 0.719-0.481 1.963-0.2 1.456-0.219 1.806-0.1 2.269 0.269 1.025 1.938 3.119 2.681 3.369 0.238 0.075 0.419 0.212 0.8 0.613 0.269 0.275 0.619 0.606 0.775 0.725s0.281 0.238 0.287 0.262c0 0.025-0.125 0.256-0.281 0.506-0.394 0.65-0.494 1.087-0.45 1.981 0.044 0.813 0.137 1.344 0.425 2.375l0.2 0.719-0.044 2.394c-0.025 1.644-0.019 2.431 0.025 2.512 0.063 0.125 0.144 0.125 3.844 0.125 2.537 0 3.787-0.019 3.813-0.063 0.038-0.063-0.031-2.25-0.125-3.938l-0.031-0.594 0.181 0.35c0.144 0.269 0.25 0.381 0.469 0.5 0.294 0.156 0.306 0.175 0.531 0.869 0.488 1.531 0.569 1.637 1.25 1.675 0.469 0.031 0.744-0.069 0.913-0.325 0.050-0.075 0.337-0.756 0.631-1.512 0.288-0.75 0.725-1.869 0.962-2.475 0.244-0.613 0.438-1.15 0.438-1.194s0.025-0.106 0.056-0.137c0.038-0.038 0.163-0.325 0.288-0.644 0.125-0.325 0.25-0.631 0.281-0.688 0.1-0.175 0.438-1.262 0.438-1.394 0-0.156-0.163-0.481-0.331-0.663-0.119-0.131-0.119-0.188-0.081-0.988 0.056-0.988 0.019-1.094-0.406-1.094-0.4 0-0.606 0.337-0.675 1.094l-0.038 0.438-0.294-0.019c-0.194-0.019-0.344 0.012-0.438 0.075-0.075 0.054-0.167 0.090-0.267 0.1l-0.002 0c-0.212 0-0.581 0.35-0.631 0.6-0.056 0.313 0.063 0.988 0.219 1.206 0.106 0.15 0.125 0.25 0.106 0.544-0.019 0.219 0.006 0.444 0.050 0.556 0.075 0.175 0.063 0.225-0.15 0.625-0.131 0.238-0.337 0.725-0.469 1.081-0.125 0.35-0.256 0.637-0.281 0.637s-0.069-0.075-0.094-0.169c-0.025-0.1-0.319-0.813-0.656-1.594-0.669-1.55-0.938-1.988-1.863-3.044-0.288-0.331-0.538-0.637-0.556-0.688-0.025-0.050 0.119-0.231 0.369-0.469 0.563-0.531 1.206-1.425 1.363-1.881 0.256-0.762 0.387-1.538 0.381-2.212-0.006-0.613 0-0.662 0.163-0.906 0.169-0.244 0.175-0.287 0.175-1.006 0-0.744-0.006-0.762-0.2-1.063-0.281-0.438-0.456-0.613-0.881-0.875-0.244-0.15-0.4-0.3-0.469-0.444-0.063-0.119-0.225-0.375-0.369-0.563-0.231-0.313-0.256-0.381-0.269-0.744-0.012-0.275-0.056-0.456-0.131-0.569-0.069-0.094-0.144-0.213-0.181-0.269-0.031-0.056-0.125-0.2-0.206-0.325-0.075-0.125-0.125-0.262-0.106-0.313s0.163-0.162 0.313-0.256c0.456-0.275 0.663-0.956 0.413-1.362-0.156-0.256-0.169-0.412-0.038-0.481 0.050-0.031 0.219-0.175 0.381-0.331l0.294-0.275-0.038-0.581-0.038-0.575 0.2-0.169c0.413-0.344 0.625-1.013 0.387-1.213-0.337-0.275 0.144-0.7 1.319-1.15 0.381-0.15 0.456-0.206 0.587-0.438 0.131-0.244 0.137-0.325 0.113-0.837-0.044-0.738-0.3-1.281-0.719-1.5-0.231-0.125-1.075-0.087-1.363 0.063zM20.962 0.65c0.156 0.063 0.25 0.175 0.381 0.437 0.375 0.775 0.181 1.394-0.55 1.719-0.625 0.281-0.681 0.313-1.044 0.512-0.606 0.331-0.694 0.556-0.375 0.931 0.106 0.119 0.188 0.287 0.188 0.375v0.156l-0.094-0.175c-0.050-0.1-0.163-0.263-0.25-0.369-0.313-0.369-0.163-0.719 0.45-1.019 0.244-0.119 0.325-0.188 0.25-0.206-0.169-0.038-0.744 0.319-0.9 0.55-0.119 0.169-0.144 0.181-0.144 0.081 0-0.119 0.375-0.519 0.488-0.519 0.025 0 0.094-0.044 0.163-0.094 0.113-0.087 0.113-0.1-0.075-0.306-0.337-0.388-0.35-1.106-0.031-1.563 0.206-0.294 0.469-0.456 0.844-0.531 0.394-0.081 0.469-0.075 0.7 0.019zM7.325 1.413c0.631 0.181 0.869 0.606 0.769 1.387-0.031 0.275-0.088 0.394-0.237 0.544-0.112 0.112-0.244 0.212-0.294 0.231-0.075 0.025-0.081 0.063-0.031 0.206 0.056 0.15 0.125 0.194 0.494 0.294 0.531 0.144 0.644 0.2 0.725 0.381 0.056 0.119 0.056 0.125-0.012 0.037-0.081-0.1-0.275-0.175-0.794-0.306-0.175-0.044-0.344-0.15-0.481-0.3-0.169-0.181-0.213-0.206-0.213-0.112 0 0.063 0.1 0.212 0.225 0.325 0.119 0.119 0.181 0.213 0.138 0.213-0.119 0-0.25-0.112-0.419-0.362-0.106-0.15-0.188-0.2-0.325-0.2-0.688 0-1.156-0.794-0.938-1.6 0.1-0.369 0.425-0.719 0.725-0.775 0.138-0.025 0.263-0.050 0.275-0.056 0.019 0 0.194 0.038 0.394 0.094zM19.269 4.513c0.056 0.088 0.094 0.2 0.075 0.25-0.038 0.094-0.288 0.256-0.569 0.362-0.175 0.069-0.175 0.069-0.056-0.056 0.063-0.075 0.15-0.131 0.188-0.131 0.044 0 0.144-0.050 0.225-0.119l0.144-0.119-0.169-0.244c-0.094-0.131-0.169-0.287-0.169-0.338s0.050-0.019 0.113 0.075c0.056 0.094 0.156 0.237 0.219 0.319zM8.644 4.581c0.019 0.050-0.050 0.225-0.15 0.394s-0.181 0.281-0.181 0.25 0.056-0.15 0.131-0.269c0.075-0.112 0.119-0.269 0.1-0.331-0.037-0.138 0.050-0.175 0.1-0.044zM8.675 5.112c-0.131 0.306-0.131 0.331-0.031 0.431 0.063 0.063 0.213 0.138 0.338 0.175 0.144 0.044 0.244 0.112 0.281 0.213 0.050 0.144 0.050 0.15-0.056 0.056-0.063-0.056-0.25-0.156-0.425-0.219-0.387-0.144-0.419-0.275-0.175-0.7 0.094-0.175 0.181-0.306 0.188-0.294 0.012 0.006-0.044 0.162-0.119 0.338zM19.375 5.031c-0.044 0.050-0.212 0.169-0.381 0.263-0.169 0.088-0.306 0.2-0.306 0.25 0 0.069 0.169 0.481 0.294 0.719 0.012 0.031 0.012 0.050 0 0.050-0.081 0-0.419-0.625-0.419-0.775 0-0.144 0.050-0.194 0.344-0.325 0.188-0.088 0.356-0.188 0.375-0.219 0.025-0.031 0.069-0.056 0.106-0.056s0.038 0.037-0.012 0.094zM18.619 6c0.212 0.425 0.212 0.438 0.1 0.563-0.2 0.219-0.85 0.631-0.775 0.494 0.031-0.069 0.2-0.2 0.375-0.294 0.4-0.219 0.438-0.356 0.188-0.7-0.181-0.25-0.256-0.506-0.144-0.494 0.025 0 0.137 0.194 0.256 0.431zM9.225 7c-0.131 0.431-0.037 0.619 0.412 0.844 0.338 0.169 0.425 0.25 0.425 0.4 0 0.044-0.063 0.006-0.131-0.088-0.075-0.094-0.313-0.25-0.531-0.356s-0.412-0.237-0.431-0.294c-0.031-0.106 0.056-0.412 0.225-0.781 0.125-0.263 0.144-0.094 0.031 0.275zM18.775 6.8c-0.144 0.125-0.363 0.319-0.488 0.431l-0.231 0.194 0.188 0.381c0.106 0.206 0.194 0.456 0.188 0.55-0.006 0.156-0.012 0.15-0.063-0.050-0.025-0.125-0.137-0.369-0.244-0.544-0.238-0.375-0.206-0.487 0.206-0.731 0.15-0.081 0.337-0.225 0.419-0.313s0.175-0.156 0.212-0.156c0.038 0-0.044 0.106-0.188 0.237zM18.25 8.35c0 0.15-0.15 0.3-0.356 0.363-0.194 0.063-0.181-0.012 0.012-0.088 0.206-0.081 0.256-0.225 0.163-0.463-0.15-0.369-0.144-0.444 0.019-0.194 0.087 0.137 0.163 0.306 0.163 0.381zM18.313 8.688c-0.038 0.075-0.144 0.162-0.238 0.206-0.294 0.125-0.637 0.425-0.637 0.55 0 0.069 0.031 0.188 0.075 0.262 0.063 0.125 0.063 0.131-0.031 0.050-0.063-0.050-0.106-0.175-0.106-0.313 0-0.281 0.15-0.444 0.569-0.619 0.163-0.069 0.313-0.156 0.331-0.194 0.081-0.125 0.106-0.075 0.038 0.056zM9.813 9.256c-0.069 0.119-0.063 0.156 0.037 0.225 0.069 0.050 0.188 0.1 0.275 0.119 0.606 0.125 0.8 0.644 0.431 1.144-0.131 0.181-0.131 0.244 0.019 0.456 0.125 0.175-0.012 0.219-0.137 0.050-0.156-0.2-0.156-0.381-0.006-0.569 0.169-0.219 0.213-0.419 0.137-0.613-0.088-0.194-0.213-0.287-0.544-0.375-0.325-0.088-0.444-0.275-0.306-0.488 0.125-0.188 0.2-0.15 0.094 0.050zM17.231 9.463c-0.038 0.094 0.175 0.475 0.269 0.475 0.031 0 0.087 0.056 0.125 0.119 0.069 0.137 0.006 0.369-0.156 0.531-0.15 0.15-0.238 0.056-0.094-0.1 0.175-0.194 0.156-0.381-0.063-0.537-0.144-0.113-0.188-0.188-0.188-0.356 0-0.119 0.031-0.219 0.069-0.219s0.056 0.037 0.038 0.088zM9.688 9.669c0.063 0.063 0.256 0.162 0.431 0.225 0.406 0.144 0.469 0.313 0.231 0.669-0.194 0.294-0.206 0.494-0.037 0.706 0.181 0.231 0.162 0.4-0.025 0.213-0.269-0.269-0.294-0.656-0.063-0.994 0.156-0.225 0.162-0.244 0.063-0.356-0.056-0.063-0.194-0.137-0.306-0.156-0.188-0.037-0.481-0.256-0.481-0.363 0-0.075 0.056-0.063 0.188 0.056zM15.956 10.25c0.788 0.2 1.613 0.706 2.325 1.419 0.275 0.275 0.563 0.756 0.494 0.825-0.012 0.019-0.131-0.094-0.262-0.25-0.725-0.863-1.425-1.256-2.688-1.525-0.894-0.188-2.4-0.069-3.012 0.238-1.381 0.681-2.594 1.906-3.125 3.156-0.419 0.981-0.525 1.469-0.531 2.45-0.006 0.863-0.037 1.063-0.15 1.063-0.075 0-0.194-0.869-0.194-1.438 0-1 0.25-2.069 0.713-3 0.55-1.125 1.444-2.069 2.412-2.563 1.063-0.537 2.762-0.7 4.019-0.375zM17.769 10.656c-0.106 0.15-0.269 0.213-0.269 0.106 0-0.031 0.056-0.106 0.125-0.169s0.144-0.213 0.169-0.338l0.050-0.225 0.019 0.231c0.012 0.156-0.019 0.287-0.094 0.394zM15.669 10.881c1.2 0.231 2.025 0.65 2.544 1.294 0.106 0.125 0.212 0.238 0.238 0.25 0.125 0.056 0.031 0.137-0.15 0.137-0.369 0-0.863 0.081-0.863 0.137 0 0.025 0.344 0.050 0.769 0.044 0.844-0.006 0.962 0.025 1.531 0.444 0.288 0.206 0.525 0.631 0.6 1.069 0.050 0.269 0.025 0.281-0.619 0.3-0.238 0.006-0.9 0.050-1.469 0.1s-1.069 0.094-1.106 0.094c-0.056 0-0.081-0.1-0.081-0.281 0-0.156-0.025-0.281-0.063-0.281s-0.063 0.181-0.063 0.419c0 0.975 0.7 1.75 1.637 1.819 0.494 0.038 0.719-0.019 1.144-0.269l0.363-0.219-0.038 0.856c-0.031 0.944-0.212 1.731-0.519 2.25-0.319 0.55-1.369 1.681-1.844 1.988-0.125 0.081-0.506 0.238-0.844 0.35-0.6 0.194-0.656 0.2-1.894 0.231-1.469 0.025-2.025-0.031-2.725-0.306-0.662-0.25-1.075-0.544-1.625-1.137-0.381-0.406-0.456-0.519-0.375-0.556 0.181-0.106 0.1-0.175-0.15-0.137-0.35 0.056-0.644-0.063-0.938-0.381-0.231-0.25-0.256-0.313-0.256-0.594 0-0.481 0.262-0.869 0.669-1.006 0.262-0.087 0.269-0.194 0.006-0.169l-0.206 0.019-0.019-0.625c-0.019-0.725 0.050-1.2 0.275-1.887 0.531-1.575 1.412-2.637 2.938-3.531 0.481-0.281 0.731-0.363 1.431-0.456 0.806-0.113 0.95-0.106 1.7 0.037zM20.35 14.95c-0.087 0.531-0.375 0.931-0.875 1.194-0.387 0.206-1.081 0.188-1.512-0.038-0.431-0.219-0.837-0.756-0.837-1.1 0-0.1 0.075-0.119 0.613-0.156 0.331-0.025 0.719-0.056 0.863-0.075 0.225-0.031 0.262-0.019 0.294 0.094 0.044 0.175 0.175 0.162 0.356-0.025 0.131-0.144 0.194-0.156 0.644-0.156h0.5l-0.044 0.262zM24.419 20.1c0.031 0.094-0.044 1.106-0.15 1.881-0.044 0.325 0.075 0.369 0.156 0.069l0.050-0.206 0.169 0.25c0.094 0.137 0.169 0.306 0.169 0.381 0 0.119-0.281 0.9-0.738 2.025-0.212 0.531-0.531 1.344-1.488 3.813-0.363 0.944-0.694 1.775-0.731 1.844-0.113 0.212-0.25 0.275-0.619 0.281-0.462 0-0.519-0.069-0.894-1.2-0.163-0.494-0.331-0.956-0.381-1.031-0.044-0.075-0.137-0.275-0.206-0.45l-0.113-0.306 0.225-0.225c0.238-0.231 0.863-0.5 1.025-0.438 0.044 0.012 0.15 0.206 0.225 0.425l0.137 0.4-0.188 0.419c-0.106 0.231-0.194 0.462-0.194 0.506 0 0.206 0.119 0.050 0.344-0.462 0.131-0.3 0.288-0.613 0.344-0.7s0.256-0.494 0.431-0.906c0.675-1.531 0.775-1.756 0.887-1.944 0.113-0.181 0.113-0.194-0.006-0.294-0.156-0.131-0.169-0.569-0.031-1.019 0.125-0.413 0.119-0.538-0.038-0.738-0.125-0.156-0.294-0.175-0.2-0.019 0.025 0.044 0.038 0.119 0.031 0.175-0.012 0.056 0.025 0.119 0.075 0.137 0.094 0.038 0.069 0.294-0.031 0.294-0.094 0-0.25-0.369-0.281-0.675-0.031-0.244-0.012-0.319 0.094-0.438 0.194-0.2 0.306-0.175 0.613 0.156 0.15 0.156 0.288 0.269 0.306 0.25 0.044-0.038-0.163-0.35-0.319-0.481-0.131-0.113-0.119-0.25 0.031-0.25 0.131 0 0.438 0.125 0.438 0.181 0 0.019 0.087 0.137 0.181 0.256l0.181 0.219v-0.344c-0.006-0.4 0.163-1.506 0.269-1.762 0.081-0.2 0.169-0.225 0.225-0.075zM18.438 21.813c0.669 0.762 0.988 1.181 1.288 1.681 0.219 0.363 1.337 2.913 1.337 3.044 0 0.038-0.137 0.087-0.306 0.106-0.525 0.063-1.056 0.425-1.294 0.869-0.050 0.1-0.1 0.175-0.119 0.175-0.012 0-0.194-0.325-0.4-0.731l-0.381-0.725 0.2-0.4c0.269-0.544 0.3-0.975 0.1-1.269-0.081-0.119-0.294-0.3-0.475-0.394-0.238-0.131-0.319-0.206-0.3-0.281 0.056-0.194 0.163-1.081 0.163-1.363 0-0.231-0.019-0.275-0.125-0.275-0.262 0-0.544 0.456-0.688 1.131-0.075 0.337-0.094 0.356-0.337 0.438-0.137 0.044-0.306 0.087-0.369 0.1-0.231 0.038-0.35 0.15-0.5 0.462-0.087 0.175-0.231 0.381-0.319 0.462-0.125 0.119-0.162 0.212-0.162 0.419 0 0.387 0.175 0.644 0.675 1.025 0.106 0.081-0.025 0.306-0.863 1.462-0.287 0.394-0.563 0.781-0.619 0.856s-0.119 0.144-0.144 0.144c-0.075 0-0.294-0.844-0.256-1.006 0.019-0.113-0.050-0.369-0.194-0.738-0.125-0.319-0.344-0.969-0.494-1.444-0.144-0.481-0.287-0.875-0.319-0.875-0.088 0 0.019 0.425 0.406 1.563 0.206 0.6 0.387 1.137 0.406 1.188 0.025 0.075-0.056 0.113-0.375 0.169-0.575 0.1-1.050 0.337-1.406 0.7l-0.306 0.313-0.294-0.75c-0.813-2.056-1.156-4.325-0.794-5.25 0.113-0.281 0.45-0.856 0.706-1.2 0.019-0.025 0.256 0.025 0.531 0.119 0.425 0.137 0.656 0.175 1.65 0.219 1.631 0.081 2.612-0.056 3.481-0.5 0.131-0.063 0.256-0.113 0.281-0.106 0.019 0 0.3 0.3 0.613 0.663zM18.094 22.856c-0.025 0.238-0.081 0.65-0.131 0.925-0.1 0.6-0.106 0.781-0.025 0.781 0.038 0 0.063-0.056 0.063-0.125 0-0.181 0.1-0.156 0.262 0.063 0.075 0.1 0.156 0.188 0.188 0.188 0.094 0 0.050-0.169-0.075-0.281-0.2-0.181-0.094-0.188 0.144-0.006 0.281 0.212 0.381 0.456 0.325 0.788-0.063 0.381-0.419 1.044-0.769 1.438-0.163 0.188-0.569 0.794-0.9 1.344-0.525 0.875-1.594 2.544-2.081 3.238-0.238 0.331-0.488 0.45-0.781 0.363-0.125-0.038-0.275-0.119-0.325-0.175-0.094-0.106-0.519-1.144-1.012-2.456-0.206-0.544-0.213-0.594-0.119-0.7 0.213-0.238 1.287-0.619 1.406-0.5 0.031 0.031 0.131 0.313 0.231 0.637l0.188 0.581-0.188 0.269c-0.194 0.288-0.213 0.337-0.119 0.337 0.031 0 0.206-0.206 0.387-0.462s0.644-0.894 1.025-1.425c0.381-0.525 0.744-1.050 0.813-1.169 0.119-0.206 0.119-0.212 0-0.281-0.488-0.288-0.787-0.769-0.7-1.125 0.037-0.15 0.225-0.238 0.225-0.106 0 0.031 0.081 0.144 0.181 0.25 0.319 0.337 0.694 0.206 0.694-0.244 0-0.15-0.131-0.438-0.194-0.438-0.081 0-0.125 0.113-0.056 0.156 0.113 0.069 0.063 0.156-0.094 0.156-0.206 0-0.2 0.113 0.006 0.163 0.094 0.025 0.15 0.075 0.137 0.137-0.031 0.156-0.15 0.15-0.356-0.019-0.244-0.212-0.256-0.45-0.038-0.825 0.144-0.231 0.188-0.269 0.375-0.269 0.163 0 0.269 0.056 0.431 0.219 0.125 0.119 0.231 0.219 0.25 0.219 0.012 0 0.019-0.125 0.006-0.275-0.025-0.413 0.262-1.512 0.45-1.694 0.181-0.188 0.225-0.106 0.175 0.325zM17.313 24c0 0.031-0.044 0.063-0.094 0.063s-0.094-0.031-0.094-0.063c0-0.038 0.044-0.063 0.094-0.063s0.094 0.025 0.094 0.063zM18.394 27.356c0.094 1.669 0.181 4.275 0.156 4.3-0.019 0.019-0.837 0.025-1.825 0.019l-1.8-0.019 0.137-0.156c0.075-0.087 0.175-0.212 0.219-0.281 0.106-0.169 0.95-1.475 1.438-2.219 0.212-0.325 0.519-0.837 0.688-1.137 0.306-0.556 0.8-1.238 0.9-1.238 0.025 0 0.069 0.331 0.087 0.731zM12.094 28.531c0.137 0.381 0.294 0.531 0.556 0.531h0.206l0.45 1.15c0.287 0.725 0.512 1.206 0.619 1.313l0.169 0.163h-2.531v-1.331c0-0.738 0.019-1.681 0.044-2.106l0.037-0.762 0.169 0.363c0.088 0.206 0.219 0.506 0.281 0.681zM19.65 27.95c-0.056 0.087-0.15-0.012-0.15-0.156 0.006-0.131 0.006-0.131 0.094-0.019 0.050 0.063 0.075 0.144 0.056 0.175zM12.713 28.637c0.063 0.231 0.044 0.3-0.075 0.3-0.188 0-0.256-0.113-0.175-0.288 0.088-0.188 0.2-0.194 0.25-0.012z"></path>
<path d="M13.219 12.919c-0.438 0.031-0.606 0.075-0.556 0.15 0.025 0.044 0.144 0.050 0.306 0.031 0.144-0.025 0.588-0.044 0.988-0.044 0.7-0.006 0.738 0.006 1.106 0.2 0.213 0.113 0.438 0.281 0.5 0.375 0.294 0.406 0.519 1.219 0.363 1.269-0.044 0.019-0.781 0.063-1.644 0.1-0.856 0.037-1.713 0.088-1.887 0.106l-0.331 0.037v-0.225c0-0.269-0.106-0.363-0.162-0.137-0.106 0.431 0.144 1.25 0.494 1.613 0.425 0.431 0.775 0.569 1.488 0.575 0.563 0 0.619-0.012 1.069-0.238 1.019-0.5 1.4-1.431 1.050-2.569-0.144-0.45-0.375-0.762-0.731-0.988-0.125-0.075-0.194-0.15-0.156-0.162 0.363-0.119-0.719-0.175-1.894-0.094zM15.981 15.244c-0.113 0.569-0.55 1.112-1.069 1.356-0.694 0.319-1.275 0.344-1.856 0.075-0.537-0.25-0.906-0.713-0.944-1.188l-0.019-0.206 0.531-0.044c1.219-0.094 1.819-0.1 1.787-0.012-0.019 0.044 0.006 0.113 0.056 0.15 0.106 0.088 0.344-0.019 0.344-0.156 0-0.094 0.194-0.131 0.806-0.144l0.4-0.012-0.037 0.181zM17.188 16.375c0 0.031 0.063 0.094 0.137 0.131 0.331 0.181 0.525 0.488 0.425 0.681-0.038 0.069-0.1 0.125-0.144 0.131-0.2 0.019-0.413-0.025-0.631-0.137-0.131-0.069-0.256-0.113-0.275-0.094-0.063 0.069 0.125 0.219 0.4 0.325 0.475 0.181 0.831 0.019 0.837-0.375 0-0.137-0.069-0.25-0.288-0.456-0.281-0.256-0.462-0.337-0.462-0.206zM16.575 19.069c-0.631 0.075-1.325 0.288-1.325 0.4s0 0.113 0.269 0c0.344-0.144 0.7-0.206 1.563-0.281 0.681-0.056 0.856-0.056 1.181 0.031 0.212 0.050 0.394 0.081 0.406 0.069 0.019-0.012-0.050-0.081-0.144-0.144-0.206-0.131-1.181-0.169-1.95-0.075z"></path>
</symbol>
<symbol id="icon-email-black" viewBox="0 0 32 32">
<path d="M26.667 5.333h-21.333c-1.476 0-2.667 1.191-2.667 2.667v16c0 1.458 1.191 2.667 2.667 2.667h21.333c1.458 0 2.667-1.209 2.667-2.667v-16c0-1.476-1.209-2.667-2.667-2.667zM26.133 11.004l-9.422 5.884c-0.202 0.127-0.448 0.202-0.711 0.202s-0.509-0.075-0.717-0.206l0.006 0.003-9.422-5.867c-0.364-0.195-0.607-0.572-0.607-1.006 0-0.628 0.509-1.138 1.138-1.138 0.255 0 0.491 0.084 0.681 0.226l-0.003-0.002 8.924 5.564 8.942-5.582c0.193-0.155 0.441-0.249 0.71-0.249 0.628 0 1.138 0.509 1.138 1.138 0 0.454-0.266 0.846-0.65 1.028l-0.007 0.003z"></path>
</symbol>
<symbol id="icon-telegram-icon" viewBox="0 0 32 32">
<path fill="#fff" style="fill: var(--color1, #fff)"  d="M32 0l-32 18 10.227 3.787 15.773-14.787-12 16.187v8.813l5.733-6.693 7.267 2.693 5-28z"></path>
</symbol>
<symbol id="icon-person-black" viewBox="0 0 32 32">
<path d="M16 16c2.946 0 5.333-2.388 5.333-5.333s-2.388-5.333-5.333-5.333v0c-2.946 0-5.333 2.388-5.333 5.333s2.388 5.333 5.333 5.333v0zM16 18.667c-3.556 0-10.667 1.778-10.667 5.333v1.333c0 0.729 0.604 1.333 1.333 1.333h18.667c0.729 0 1.333-0.604 1.333-1.333v-1.333c0-3.556-7.111-5.333-10.667-5.333z"></path>
</symbol>
<symbol id="icon-dom-phone-black" viewBox="0 0 32 32">
<path d="M24.889 19.769l-3.271-0.356c-0.782-0.107-1.564 0.178-2.116 0.711l-2.364 2.382c-3.67-1.894-6.586-4.81-8.429-8.372l-0.051-0.108 2.382-2.382c0.551-0.551 0.818-1.333 0.729-2.116l-0.356-3.236c-0.156-1.288-1.243-2.276-2.56-2.276-0.006 0-0.012 0-0.019 0h-2.221c-1.458 0-2.667 1.209-2.578 2.667 0.716 10.991 9.453 19.729 20.38 20.441l0.065 0.003c1.458 0.089 2.667-1.12 2.667-2.578v-2.222c0-1.316-0.96-2.4-2.258-2.56z"></path>
</symbol>
</defs>
</svg>
