<svg aria-hidden="true" style="position:absolute;width:0;height:0;overflow:hidden" xmlns="http://www.w3.org/2000/svg">
  <defs>
    <symbol id="icon-envelope-hover" viewBox="0 0 43 32">
      <path  d="M38.67 0H4a4 4 0 0 0-4 4v24a4 4 0 0 0 4 4h34.67a4 4 0 0 0 4-4V4a4 4 0 0 0-4-4zm0 2.67c.18 0 .35.03.5.1L21.34 18.24 3.5 2.77c.16-.07.33-.1.51-.1h34.67zm0 26.66H4c-.74 0-1.33-.6-1.33-1.33V5.59L20.46 21a1.33 1.33 0 0 0 1.75 0L40 5.59V28c0 .74-.6 1.33-1.34 1.33z"/>
    </symbol>
    <symbol id="icon-smartphone" viewBox="0 0 20 32">
      <path  d="M17 0H3a3 3 0 0 0-3 3v26a3 3 0 0 0 3 3h14a3 3 0 0 0 3-3V3a3 3 0 0 0-3-3zM3 2h14a1 1 0 0 1 1 1v21H2V3a1 1 0 0 1 1-1zm14 28H3a1 1 0 0 1-1-1v-3h16v3a1 1 0 0 1-1 1z"/>
      <path  d="M4.7 27.48c.4.36.4.95 0 1.32s-1.02.36-1.4 0c-.4-.37-.4-.96 0-1.32s1.02-.37 1.4 0z"/>
    </symbol>
    <symbol id="icon-facebook" viewBox="0 0 32 32">
      <path d="M19 6h5V0h-5a7 7 0 0 0-7 7v3H8v6h4v16h6V16h5l1-6h-6V7c0-.54.46-1 1-1z"/>
    </symbol>
    <symbol id="icon-instagram" viewBox="0 0 32 32">
      <path d="M16 2.88c4.28 0 4.78.02 6.46.1 1.56.06 2.4.33 2.97.54.75.3 1.28.64 1.84 1.2.56.56.9 1.1 1.2 1.84.22.56.48 1.4.55 2.97.07 1.68.1 2.19.1 6.46s-.03 4.78-.1 6.46a8.77 8.77 0 0 1-.55 2.97 4.94 4.94 0 0 1-1.2 1.84c-.56.56-1.09.9-1.83 1.2-.57.22-1.42.48-2.97.55-1.69.07-2.2.1-6.46.1s-4.79-.03-6.47-.1a8.77 8.77 0 0 1-2.97-.55 4.95 4.95 0 0 1-1.84-1.2c-.56-.56-.9-1.09-1.2-1.83a8.81 8.81 0 0 1-.55-2.97c-.07-1.69-.09-2.2-.09-6.46s.02-4.79.1-6.47c.06-1.56.33-2.4.54-2.97.3-.74.64-1.28 1.2-1.83.56-.57 1.1-.91 1.84-1.2a8.8 8.8 0 0 1 2.97-.55c1.68-.08 2.18-.1 6.46-.1zM16 0c-4.34 0-4.89.02-6.6.1-1.7.07-2.86.34-3.88.74A7.8 7.8 0 0 0 2.7 2.69 7.83 7.83 0 0 0 .84 5.52C.44 6.54.17 7.7.09 9.4.02 11.11 0 11.66 0 16s.02 4.89.1 6.6c.07 1.7.34 2.86.74 3.87a7.8 7.8 0 0 0 1.85 2.84 7.82 7.82 0 0 0 2.83 1.85c1.02.39 2.18.67 3.88.74 1.7.08 2.25.1 6.6.1s4.88-.02 6.59-.1c1.7-.07 2.87-.35 3.88-.74 1.05-.41 1.94-.96 2.83-1.85s1.44-1.78 1.84-2.83c.4-1.02.67-2.18.75-3.88.07-1.7.1-2.25.1-6.6s-.03-4.88-.1-6.59c-.08-1.7-.35-2.87-.75-3.88a7.5 7.5 0 0 0-1.83-2.84A7.82 7.82 0 0 0 26.48.84C25.46.44 24.3.17 22.6.1 20.9.02 20.35 0 16 0z"/>
      <path d="M16 7.78a8.22 8.22 0 1 0 0 16.44 8.22 8.22 0 0 0 0-16.44zm0 13.55a5.33 5.33 0 1 1 0-10.66 5.33 5.33 0 0 1 0 10.66zM26.46 7.46a1.92 1.92 0 1 1-3.84 0 1.92 1.92 0 0 1 3.84 0z"/>
    </symbol>
    <symbol id="icon-twitter" viewBox="0 0 32 32">
      <path d="M32 7.08c-1.18.52-2.44.87-3.77 1.03a6.6 6.6 0 0 0 2.89-3.63c-1.27.74-2.68 1.3-4.17 1.59a6.57 6.57 0 0 0-11.19 5.99A18.63 18.63 0 0 1 2.23 5.19a6.56 6.56 0 0 0 2.03 8.77 6.56 6.56 0 0 1-2.97-.82v.08a6.56 6.56 0 0 0 5.27 6.44 6.57 6.57 0 0 1-2.97.1 6.59 6.59 0 0 0 6.13 4.57 13.17 13.17 0 0 1-9.73 2.72A18.57 18.57 0 0 0 10.06 30c12.08 0 18.68-10 18.68-18.68l-.01-.85C30 9.55 31.12 8.39 32 7.07z"/>
    </symbol>
    <symbol id="icon-linkedin2" viewBox="0 0 32 32">
      <path d="M12 12h5.54v2.84h.07c.77-1.38 2.66-2.84 5.47-2.84 5.84 0 6.92 3.64 6.92 8.37V30h-5.77v-8.54c0-2.04-.04-4.66-3-4.66-3 0-3.46 2.22-3.46 4.51V30H12V12zM2 12h6v18H2V12zM8 7a3 3 0 1 1-6 0 3 3 0 0 1 6 0z"/>
    </symbol>
  </defs>
</svg>
